<svg width="404" height="463" viewBox="0 0 404 463" fill="none" xmlns="http://www.w3.org/2000/svg">
<path fill-rule="evenodd" clip-rule="evenodd" d="M160.184 347.778C155.671 342.221 150.607 338.487 147.697 338.2C140.399 337.48 130.956 361.517 132.64 372.961C134.324 384.405 159.359 398.238 167.595 379.775C170.453 373.368 169.809 366.486 167.445 360.202L187.221 328.783L165.829 320.997L160.184 347.778Z" fill="#B28B67"/>
<path fill-rule="evenodd" clip-rule="evenodd" d="M132.183 367.931C131.944 369.248 131.96 370.813 131.951 372.138C131.94 373.846 132.259 375.506 132.688 377.118C133.497 380.152 134.728 383.073 136.306 385.701C139.187 390.5 143.694 394.303 149.035 395.545C151.732 396.171 154.595 396.105 157.322 395.253C159.786 394.483 162.429 392.991 164.982 393.744C167.761 394.564 169.384 397.852 171.027 400.116C172.88 402.669 175.053 404.828 177.753 406.343C182.276 408.88 187.382 408.91 192.123 406.197C197.169 403.309 201.96 398.125 201.655 391.754C201.598 390.57 201.36 389.502 200.826 388.495C200.337 387.571 199.478 386.466 199.565 385.306C199.658 384.074 201.121 382.973 201.852 382.096C202.899 380.84 203.879 379.479 204.299 377.852C204.988 375.181 204.253 372.124 203.146 369.801C202.021 367.436 200.222 365.661 198.083 364.366C196.654 363.501 195.142 362.76 193.536 362.305C192.738 362.079 191.975 362.044 191.16 361.941C190.368 361.84 190.029 361.498 189.554 360.873C187.343 357.971 184.503 356.126 181.072 355.189C178.177 354.398 174.691 353.896 171.701 354.975C168.381 356.173 167.365 359.121 166.825 362.47C166.304 361.926 164.618 361.094 165.214 362.722C165.45 363.366 166.163 363.853 166.591 364.337C167.089 364.901 167.561 365.568 167.842 366.294C168.98 369.229 165.364 373.043 162.645 372.898C158.604 372.683 159.649 367.277 157.534 365.01C156.318 363.707 154.378 364.177 152.874 364.831C150.858 365.706 149.152 367.217 147.573 368.812C146.273 370.125 145.015 371.479 143.704 372.779C143.091 373.386 141.141 375.023 141.44 376.07C138.647 375.638 136.137 373.507 134.407 371.28C133.692 370.359 133.219 369.459 133.099 368.25C133.073 367.991 133.081 367.251 132.801 367.119C132.28 366.872 132.243 367.6 132.183 367.931" fill="#191847"/>
<path fill-rule="evenodd" clip-rule="evenodd" d="M212.538 257.061L210.913 128.441L211.26 34.2047L194.166 27.9827L163.901 239.358L212.538 257.061Z" fill="#1F28CF"/>
<path fill-rule="evenodd" clip-rule="evenodd" d="M223.109 260.908C237.692 222.287 256.364 169.94 258.328 167.916C260.291 165.893 345.771 137.344 345.771 137.344L342.407 119.171C342.407 119.171 245.231 141.227 238.747 146.518C232.264 151.81 189.417 206.619 165.39 239.9L223.109 260.908Z" fill="#2B44FF"/>
<path fill-rule="evenodd" clip-rule="evenodd" d="M364.939 132.915L345.938 138.812L339.133 120.147C343.631 103.479 341.614 79.9902 341.614 79.9902L345.171 78.6976L357.485 112.473L359.919 124.673L361.698 124.027L364.939 132.915Z" fill="#191847"/>
<path fill-rule="evenodd" clip-rule="evenodd" d="M218.668 18.7877L210.987 37.1241L192.306 30.3247C182.414 16.1585 163.11 2.59147 163.11 2.59147L164.404 -0.962846L198.208 11.3408L209.126 17.327L209.772 15.5499L218.668 18.7877Z" fill="#191847"/>
<path fill-rule="evenodd" clip-rule="evenodd" d="M298.617 252.6C293.405 256.088 253.832 299.581 253.832 299.581L239.218 291.052C239.218 291.052 286.157 246.854 289.229 244.45C293.219 241.326 293.846 233.802 294.272 228.7C294.337 227.911 294.398 227.18 294.466 226.532C297.766 226.871 298.206 229.019 298.67 231.282C299.194 233.839 299.748 236.545 304.489 236.962C306.32 237.123 308.145 237.117 309.927 237.111C316.085 237.09 321.742 237.071 325.448 243.956C326.035 245.048 325.81 247.75 322.434 248.014C314.023 248.671 301.165 250.895 298.617 252.6ZM108.015 213.089L128.769 244.232L140.677 231.009L116.856 209.15C112.317 196.929 109.296 191.424 107.792 192.634C106.523 193.654 106.697 195.104 106.856 196.439C106.981 197.48 107.097 198.451 106.516 199.095C105.191 200.566 99.9264 198.445 95.0162 196.218C90.106 193.99 90.759 196.776 91.5726 198.331C95.6043 203.297 101.085 208.216 108.015 213.089Z" fill="#B28B67"/>
<path fill-rule="evenodd" clip-rule="evenodd" d="M153.058 336.771L163.979 336.327C164.783 333.806 166.079 330.276 167.564 326.231C172.225 313.534 178.746 295.772 177.764 288.268C174.361 262.271 155.178 242.392 133.814 220.252C130.95 217.285 128.047 214.277 125.138 211.207L112.671 223.217C113.286 224.106 113.891 224.996 114.488 225.886C113.222 225.872 111.962 226.421 111.109 227.488C109.642 229.327 109.94 232.006 111.775 233.473C115.505 236.455 119.251 238.503 122.992 239.568C141.44 271.721 149.791 304.541 153.058 336.771Z" fill="#69A1AC"/>
<path fill-rule="evenodd" clip-rule="evenodd" d="M232.146 252.875C232.146 252.875 191.933 233.02 166.202 228.873C164.077 228.531 161.043 237.138 161.112 239.815C162.185 281.509 161.906 311.644 152.685 336.976C157.386 336.348 166.733 341.388 166.733 341.388C193.924 321.721 212.958 294.726 232.146 252.875Z" fill="#191847"/>
<path fill-rule="evenodd" clip-rule="evenodd" d="M285.434 271.771C235.037 333.431 173.085 346.116 173.085 346.116L168.286 344.37L162.982 342.439C169.641 327.703 172.29 303.697 175.363 275.848C180.277 231.309 186.275 176.943 211.498 134.954C223.168 136.469 235.249 142.732 248.328 149.512C267.204 159.297 288.157 170.16 312.953 169.381C305.53 187.177 287.684 203.372 269.917 219.493C258.656 229.712 247.427 239.901 238.905 250.451C239.529 251.689 239.537 253.207 238.792 254.497L237.368 256.965C236.407 258.63 234.492 259.399 232.713 258.98C231.929 260.206 231.19 261.438 230.499 262.677C226.967 269.005 225.241 275.901 223.535 282.719L223.535 282.719C222.598 286.463 221.667 290.183 220.446 293.773C236.206 287.491 257.342 274.23 281.167 246.581L296.145 257.631C294.635 259.784 293.108 261.886 291.568 263.94C293.119 265.718 293.557 271.64 291.612 271.893C289.558 272.161 287.497 272.117 285.434 271.771Z" fill="#89C5CC"/>
<path fill-rule="evenodd" clip-rule="evenodd" d="M169.739 343.891L179.458 331.448L174.08 317.51L185.446 312.233L177.859 270.294L189.969 313.801L178.726 319.201L183.515 331.531L169.739 343.891Z" fill="black" fill-opacity="0.1"/>
<path fill-rule="evenodd" clip-rule="evenodd" d="M188.633 259.106C186.671 258.392 184.5 259.406 183.785 261.371C183.07 263.336 184.081 265.508 186.043 266.222C188.006 266.936 190.176 265.922 190.891 263.957C191.607 261.993 190.596 259.821 188.633 259.106ZM191.637 237.033C189.675 236.318 187.505 237.332 186.789 239.297C186.074 241.262 187.085 243.434 189.048 244.148C191.01 244.862 193.181 243.849 193.896 241.884C194.611 239.919 193.6 237.747 191.637 237.033ZM193.347 218.517C194.062 216.552 196.233 215.538 198.195 216.252C200.157 216.966 201.168 219.138 200.453 221.103C199.738 223.068 197.568 224.082 195.605 223.368C193.643 222.653 192.632 220.482 193.347 218.517Z" fill="black" fill-opacity="0.4"/>
</svg>
