<svg width="301" height="426" viewBox="0 0 301 426" fill="none" xmlns="http://www.w3.org/2000/svg">
<path fill-rule="evenodd" clip-rule="evenodd" d="M145.5 27C157.374 27 167 36.6259 167 48.5V69.5C167 80.5658 158.64 89.679 147.891 90.8685C147.889 90.9197 147.886 90.971 147.883 91.0225H118.883C114.299 86.5438 118.791 57.9923 122.238 45.2902C123.788 34.9385 132.717 27 143.5 27H145.5Z" fill="#191847"/>
<path fill-rule="evenodd" clip-rule="evenodd" d="M144.065 75.2443C137.589 79.1475 131.226 81.0333 128.24 80.2635C120.75 78.333 120.062 50.9351 125.857 40.1339C131.651 29.3328 161.442 24.625 162.943 46.0255C163.464 53.4529 160.346 60.0814 155.738 65.4901L164 104H140L144.065 75.2443Z" fill="#B28B67"/>
<path fill-rule="evenodd" clip-rule="evenodd" d="M166.119 46.1504C165.422 45.4614 164.748 44.7947 164.079 44.1981L164.111 43.4207C164.111 43.4207 156.579 28 144.999 28C133.429 28 129.77 33.3787 126.66 37.9508L126.651 37.9631C128.278 43.5452 133.181 45.8037 138.726 48.3579C141.113 49.4574 143.619 50.6117 146.034 52.1095C146.98 51.341 148.186 50.8804 149.5 50.8804C152.538 50.8804 155 53.3428 155 56.3804C155 59.418 152.538 61.8804 149.5 61.8804C149.416 61.8804 149.333 61.8785 149.25 61.8748C148.144 73.7528 148.587 87.3173 151.883 90.5371H180.883C181.715 76.0731 177.974 71.947 174.15 67.7307C170.553 63.7635 166.883 59.7166 166.883 46.9028C166.625 46.6506 166.37 46.3991 166.119 46.1505L166.119 46.1504Z" fill="#191847"/>
<path fill-rule="evenodd" clip-rule="evenodd" d="M202.592 285.088C202.592 285.088 166.608 295.153 140.5 295.153C114.392 295.153 92 279.653 92 279.653C92 279.653 127.214 269.323 150 269.323C172.786 269.323 202.592 285.088 202.592 285.088Z" fill="#1F28CF"/>
<path fill-rule="evenodd" clip-rule="evenodd" d="M119.733 304.824C119.964 304.477 120.16 304.098 120.315 303.689C123.521 295.208 174.883 203.726 180 187H122.174C118.283 199.717 100.773 279.52 98.3087 295.442C90.5333 320.557 74.5247 401.895 72.4811 407.53C70.3312 413.458 82.4278 419.633 85.6513 412.346C90.7803 400.75 103.001 368.665 108.443 349.074C113.544 330.708 117.698 314.184 119.733 304.824Z" fill="#997659"/>
<path fill-rule="evenodd" clip-rule="evenodd" d="M167.043 315.994C190.525 321.928 276.416 332.658 282.31 334.341C288.374 336.072 293.69 323.574 286.195 320.867C274.27 316.559 241.411 306.606 221.488 302.544C205.464 299.277 190.841 296.611 181.024 295.05C181.855 267.473 185.657 201.294 183.165 187H132C134.39 200.707 154.59 300.718 158.344 310.729C159.536 314.302 163.091 315.882 167.043 315.994V315.994Z" fill="#B28B67"/>
<path fill-rule="evenodd" clip-rule="evenodd" d="M284.069 320.074C283.791 318.937 284.482 317.765 285.635 317.563C287.739 317.195 290.873 316.756 292.544 317.05C295.208 317.52 300.162 319.309 300.162 319.309C299.617 322.399 290.368 374.854 290.368 374.854C290.368 374.854 282.829 375.757 283.08 370.991C283.332 366.226 283.416 363.059 283.416 363.059L276.459 335.213C276.323 334.666 276.664 334.115 277.215 333.994L281.533 333.044C281.533 333.044 284.309 329.081 284.785 326.381C285.075 324.738 284.535 321.98 284.069 320.074Z" fill="#E4E4E4"/>
<path fill-rule="evenodd" clip-rule="evenodd" d="M86.5504 410.284C87.6221 409.813 88.8957 410.29 89.2949 411.391C90.023 413.398 91 416.409 91 418.106C91 420.811 90.0988 426 90.0988 426C86.9608 426 33.6969 426 33.6969 426C33.6969 426 31.4984 418.732 36.2352 418.152C40.9719 417.573 44.105 417.106 44.105 417.106L70.32 405.419C70.8346 405.189 71.437 405.43 71.6517 405.951L73.3368 410.039C73.3368 410.039 77.7218 412.085 80.4633 412.085C82.1323 412.085 84.7543 411.074 86.5504 410.284Z" fill="#E4E4E4"/>
<path fill-rule="evenodd" clip-rule="evenodd" d="M183 187C183 187 149.18 177.324 119 187C112 218.937 94.9911 231.613 92 280.579C126 297.473 168 268.53 203 285.005C213 261.961 199 206.465 183 187Z" fill="#2B44FF"/>
<path fill-rule="evenodd" clip-rule="evenodd" d="M46.5171 141.925L86 147.311L78.9161 165L46.8792 152.299C33.0703 153.661 26.393 153.333 26.8474 151.315C27.2305 149.613 28.6983 149.099 30.0502 148.626C31.1034 148.257 32.0863 147.913 32.4315 147.051C33.2197 145.083 28.7309 141.003 24.3069 137.315C19.8828 133.627 22.8525 132.948 24.7193 133.003C31.353 134.558 38.619 137.532 46.5171 141.925ZM238.602 238.908C235.672 232.963 210.03 156.45 210.03 156.45L188.133 156.532C188.133 156.532 224.149 237.583 225.692 241.406C227.696 246.372 224.292 253.587 221.984 258.48C221.627 259.237 221.296 259.938 221.015 260.567C224.218 262 225.757 260.268 227.379 258.442C229.21 256.379 231.149 254.197 235.712 256.319C237.475 257.14 239.143 258.109 240.773 259.057C246.403 262.329 251.575 265.336 258.611 260.994C259.726 260.306 260.949 257.715 257.995 255.69C250.638 250.645 240.035 241.815 238.602 238.908Z" fill="#997659"/>
<path fill-rule="evenodd" clip-rule="evenodd" d="M150.051 87L132.906 88.1422C128.683 126.343 105.684 150.473 54.189 142.304L47.3477 191.499C95.4772 197.719 137.687 178.45 146.338 126.278C148.577 112.773 150.345 98.7178 150.051 87Z" fill="#AFB9C5"/>
<path fill-rule="evenodd" clip-rule="evenodd" d="M235.598 229C223.695 165.664 198.57 116.664 160.224 82H158.579H158.523L158.509 82.0159L132.532 87.9653C132.532 119.169 125.59 142.485 118.916 164.9C116.034 174.58 113.202 184.093 111 194H181.156C182.145 205.351 182.752 217.018 183.068 229H235.598Z" fill="#C5CFD6"/>
<path fill-rule="evenodd" clip-rule="evenodd" d="M181.156 194C179.144 170.891 175.551 149.09 169.612 128.598C170.914 150.512 171.275 177.698 166.898 194H181.156Z" fill="black" fill-opacity="0.1"/>
</svg>
